<?xml version="1.0" standalone="no"?>
<!DOCTYPE svg PUBLIC "-//W3C//DTD SVG 20010904//EN"
 "http://www.w3.org/TR/2001/REC-SVG-20010904/DTD/svg10.dtd">
<svg version="1.0" xmlns="http://www.w3.org/2000/svg"
 width="16.000000pt" height="16.000000pt" viewBox="0 0 16.000000 16.000000"
 preserveAspectRatio="xMidYMid meet">
<metadata>
Created by potrace 1.11, written by Peter Selinger 2001-2013
</metadata>
<g transform="translate(0.000000,16.000000) scale(0.005735,-0.005735)"
fill="#000000" stroke="none">
<path d="M1235 2772 c-33 -2 -99 -19 -130 -33 -11 -5 -42 -16 -69 -25 -27 -8
-54 -20 -60 -25 -6 -5 -34 -26 -62 -47 -61 -45 -80 -61 -102 -86 -69 -79 -82
-95 -82 -105 0 -6 -4 -11 -9 -11 -7 0 -43 -66 -72 -135 -31 -72 -47 -211 -48
-412 l-1 -141 -90 -4 c-55 -2 -94 -8 -102 -16 -18 -18 -25 -1591 -8 -1633 7
-15 21 -30 33 -33 29 -8 1886 -8 1925 0 17 3 34 14 38 23 9 18 16 1535 7 1594
-7 51 -39 67 -138 67 l-75 0 -1 168 c-1 92 -3 181 -4 197 -10 87 -17 131 -24
140 -5 5 -11 24 -15 40 -11 45 -61 143 -93 182 -35 43 -113 123 -138 143 -62
47 -138 91 -179 102 -25 7 -46 16 -46 20 0 4 -12 8 -26 8 -14 0 -34 5 -46 11
-18 10 -305 18 -383 11z m333 -438 c4 -6 17 -14 30 -18 12 -4 22 -12 22 -17 0
-5 7 -9 15 -9 15 0 65 -45 65 -60 0 -5 6 -15 13 -22 46 -51 51 -77 55 -270 l4
-188 -371 0 -371 0 0 181 c0 176 1 182 28 237 15 31 39 68 53 82 35 34 86 70
99 70 5 0 10 4 10 9 0 15 45 19 198 17 93 0 145 -5 150 -12z"/>
</g>
</svg>
